<?xml version="1.0" standalone="no"?>
<!DOCTYPE svg PUBLIC "-//W3C//DTD SVG 20010904//EN"
 "http://www.w3.org/TR/2001/REC-SVG-20010904/DTD/svg10.dtd">
<svg version="1.0" xmlns="http://www.w3.org/2000/svg"
 width="602.000000pt" height="249.000000pt" viewBox="0 0 602.000000 249.000000"
 preserveAspectRatio="xMidYMid meet">
<metadata>
Created by potrace 1.15, written by Peter Selinger 2001-2017
</metadata>
<g transform="translate(0.000000,249.000000) scale(0.100000,-0.100000)"
fill="#000000" stroke="none">
<path d="M0 2375 l0 -105 3000 0 3000 0 0 -1125 0 -1125 -3000 0 c-1993 0
-3000 -3 -3000 -10 0 -7 1008 -10 3005 -10 l3005 0 0 1240 0 1240 -3005 0
-3005 0 0 -105z"/>
<path d="M2890 2026 c-184 -52 -319 -226 -320 -412 0 -29 9 -80 20 -115 46
-152 153 -255 305 -295 173 -47 377 37 464 190 126 222 48 488 -176 600 -90
46 -200 58 -293 32z m242 -53 c111 -40 214 -161 239 -282 35 -170 -53 -341
-216 -422 -64 -31 -77 -34 -160 -34 -76 0 -99 4 -148 27 -116 54 -205 169
-228 295 -26 141 47 299 175 381 96 61 229 75 338 35z"/>
<path d="M2837 1527 c-7 -18 12 -49 57 -98 79 -82 159 -80 235 7 46 51 59 83
40 95 -8 5 -84 9 -170 9 -120 0 -158 -3 -162 -13z"/>
<path d="M3405 955 c-29 -28 -34 -89 -11 -120 12 -17 11 -23 -10 -48 -42 -50
-23 -146 32 -167 38 -15 91 -12 125 6 28 14 32 14 48 0 42 -38 70 -3 31 39
-17 18 -19 26 -9 53 16 47 8 86 -18 90 -19 3 -23 -1 -23 -25 0 -58 -14 -57
-73 7 -68 73 -79 103 -48 133 21 21 22 22 52 5 40 -23 59 -23 59 1 0 52 -111
71 -155 26z"/>
<path d="M1130 790 l0 -180 105 0 c98 0 105 1 105 20 0 18 -7 20 -80 20 l-80
0 0 60 0 60 40 0 c33 0 40 3 40 20 0 17 -7 20 -40 20 l-40 0 0 60 0 60 80 0
c73 0 80 2 80 20 0 19 -7 20 -105 20 l-105 0 0 -180z"/>
<path d="M1402 805 c-28 -92 -48 -173 -45 -181 11 -29 40 -15 52 26 l12 40 58
0 58 0 12 -40 c10 -33 16 -40 36 -40 14 0 25 6 24 13 0 6 -24 86 -52 177 -49
154 -54 165 -78 168 -25 3 -27 -2 -77 -163z"/>
<path d="M1600 950 c0 -17 7 -20 45 -20 l45 0 0 -160 0 -160 25 0 25 0 0 160
0 160 45 0 c38 0 45 3 45 20 0 19 -7 20 -115 20 -108 0 -115 -1 -115 -20z"/>
<path d="M2050 790 l0 -180 76 0 c70 0 78 2 105 29 29 29 29 30 29 151 0 121
0 122 -29 151 -27 27 -35 29 -105 29 l-76 0 0 -180z m140 120 c17 -17 20 -33
20 -120 0 -116 -13 -140 -75 -140 l-35 0 0 140 0 140 35 0 c22 0 43 -8 55 -20z"/>
<path d="M2330 790 l0 -180 25 0 c25 0 25 1 25 81 0 78 1 80 23 77 16 -2 32
-23 62 -80 32 -62 45 -78 63 -78 30 0 28 18 -13 100 -26 51 -31 70 -21 70 42
0 70 89 45 143 -16 35 -50 47 -134 47 l-75 0 0 -180z"/>
<path d="M2600 790 l0 -180 25 0 25 0 0 180 0 180 -25 0 -25 0 0 -180z"/>
<path d="M2720 790 l0 -180 25 0 25 0 0 118 1 117 61 -117 c51 -100 65 -118
84 -118 l24 0 0 180 0 180 -25 0 -25 0 -1 -117 0 -118 -60 118 c-52 102 -62
117 -84 117 l-25 0 0 -180z"/>
<path d="M3010 790 l0 -180 25 0 c24 0 25 2 25 64 0 46 4 67 16 77 10 8 18 9
22 2 88 -134 95 -143 118 -143 36 0 30 21 -33 116 -41 61 -54 89 -47 99 5 8
29 39 52 69 24 30 41 60 37 66 -16 26 -47 7 -102 -65 l-58 -76 -3 76 c-3 72
-4 75 -27 75 l-25 0 0 -180z"/>
<path d="M3809 941 c-29 -29 -29 -30 -29 -151 0 -121 0 -122 29 -151 25 -24
38 -29 79 -29 63 0 112 35 112 81 0 24 -4 29 -25 29 -18 0 -25 -5 -25 -18 0
-25 -31 -52 -58 -52 -12 0 -31 9 -42 20 -17 17 -20 33 -20 120 0 87 3 103 20
120 11 11 31 20 43 20 25 0 57 -28 57 -48 0 -7 11 -12 25 -12 18 0 25 5 25 19
0 52 -41 81 -115 81 -38 0 -52 -5 -76 -29z"/>
<path d="M4060 790 l0 -180 25 0 c25 0 25 1 25 85 l0 85 60 0 60 0 0 -85 c0
-84 0 -85 25 -85 l25 0 0 180 0 180 -25 0 c-24 0 -25 -2 -25 -75 l0 -75 -60 0
-60 0 0 75 c0 73 -1 75 -25 75 l-25 0 0 -180z"/>
<path d="M4350 790 l0 -180 25 0 25 0 0 180 0 180 -25 0 -25 0 0 -180z"/>
<path d="M4460 790 l0 -180 95 0 c88 0 95 1 95 20 0 18 -7 20 -70 20 l-70 0 0
160 0 160 -25 0 -25 0 0 -180z"/>
<path d="M4700 790 l0 -180 95 0 c88 0 95 1 95 20 0 18 -7 20 -70 20 l-70 0 0
160 0 160 -25 0 -25 0 0 -180z"/>
</g>
</svg>
